<svg width="115" height="115" viewBox="0 0 115 115" fill="none" xmlns="http://www.w3.org/2000/svg">
<path d="M87.8223 0V6.73828H108.262V27.1777H115V0H87.8223Z" fill="#C4C4C4"/>
<path d="M6.73828 6.73828H27.1777V0H0V27.1777H6.73828V6.73828Z" fill="#C4C4C4"/>
<path d="M108.262 108.262H87.8223V115H115V87.8223H108.262V108.262Z" fill="#C4C4C4"/>
<path d="M6.73828 87.8223H0V115H27.1777V108.262H6.73828V87.8223Z" fill="#C4C4C4"/>
<path d="M101.299 57.5C101.299 33.3492 81.6508 13.7012 57.5 13.7012C33.3492 13.7012 13.7012 33.3492 13.7012 57.5C13.7012 81.6508 33.3492 101.299 57.5 101.299C81.6508 101.299 101.299 81.6508 101.299 57.5ZM57.5 94.5605C37.0649 94.5605 20.4395 77.9351 20.4395 57.5C20.4395 37.0649 37.0649 20.4395 57.5 20.4395C77.9351 20.4395 94.5605 37.0649 94.5605 57.5C94.5605 77.9351 77.9351 94.5605 57.5 94.5605Z" fill="#C4C4C4"/>
<path d="M27.1777 54.1309V57.5C27.1777 74.2194 40.7806 87.8223 57.5 87.8223C74.2194 87.8223 87.8223 74.2194 87.8223 57.5V54.1309H27.1777ZM57.5 81.084C45.6396 81.084 35.7954 72.283 34.1555 60.8691H80.8436C79.2046 72.283 69.3604 81.084 57.5 81.084Z" fill="#C4C4C4"/>
<path d="M44.0234 40.6543C45.8809 40.6543 47.3926 42.166 47.3926 44.0234H54.1309C54.1309 38.4503 49.5966 33.916 44.0234 33.916C38.4503 33.916 33.916 38.4503 33.916 44.0234H40.6543C40.6543 42.166 42.166 40.6543 44.0234 40.6543Z" fill="#C4C4C4"/>
<path d="M70.9766 40.6543C72.834 40.6543 74.3457 42.166 74.3457 44.0234H81.084C81.084 38.4503 76.5497 33.916 70.9766 33.916C65.4034 33.916 60.8691 38.4503 60.8691 44.0234H67.6074C67.6074 42.166 69.1191 40.6543 70.9766 40.6543Z" fill="#C4C4C4"/>
</svg>
