<svg width="25" height="22" viewBox="0 0 25 22" fill="none" xmlns="http://www.w3.org/2000/svg">
<path d="M22.2167 5.5C21.6208 5.5 21.1372 5.0072 21.1372 4.4C21.1372 3.1878 20.17 2.2 18.9783 2.2C17.7865 2.2 16.8193 3.1878 16.8193 4.4C16.8193 5.0072 16.3357 5.5 15.7398 5.5C15.144 5.5 14.6604 5.0072 14.6604 4.4C14.6604 1.9734 16.5969 0 18.9783 0C21.3596 0 23.2962 1.9734 23.2962 4.4C23.2962 5.0094 22.8125 5.5 22.2167 5.5Z" fill="#8C8C8C"/>
<path d="M9.26301 5.5C8.66714 5.5 8.18354 5.0072 8.18354 4.4C8.18354 3.1878 7.21417 2.2 6.0246 2.2C4.83502 2.2 3.86565 3.1878 3.86565 4.4C3.86565 5.0072 3.38205 5.5 2.78618 5.5C2.19031 5.5 1.70671 5.0072 1.70671 4.4C1.70671 1.9734 3.64328 0 6.0246 0C8.40591 0 10.3425 1.9734 10.3425 4.4C10.3425 5.0094 9.85888 5.5 9.26301 5.5Z" fill="#8C8C8C"/>
<path d="M24.7815 11.4378C24.5764 11.1628 24.259 11 23.9222 11H1.08061C0.741655 11 0.42429 11.1606 0.22135 11.4356C0.0140909 11.7128 -0.0506777 12.067 0.039998 12.3992C1.60091 18.051 6.72625 22 12.4993 22C18.2723 22 23.3976 18.051 24.9585 12.3992C25.0514 12.067 24.9866 11.7128 24.7815 11.4378Z" fill="#8C8C8C"/>
</svg>
