<svg width="512" height="512" viewBox="0 0 512 512" fill="none" xmlns="http://www.w3.org/2000/svg">
<path d="M256 492.17C386.433 492.17 492.17 386.433 492.17 256C492.17 125.567 386.433 19.83 256 19.83C125.567 19.83 19.83 125.567 19.83 256C19.83 386.433 125.567 492.17 256 492.17Z" fill="#FF8484"/>
<path d="M256 512C114.853 512 0 397.167 0 256C0 114.853 114.853 0 256 0C397.167 0 512 114.853 512 256C512 397.167 397.167 512 256 512ZM256 39.659C136.705 39.659 39.659 136.705 39.659 256C39.659 375.295 136.705 472.341 256 472.341C375.295 472.341 472.341 375.275 472.341 256C472.341 136.705 375.295 39.659 256 39.659Z" fill="#FF8484"/>
<path d="M156.858 354.848C149.047 347.037 149.047 334.374 156.858 326.564L326.563 156.858C334.374 149.047 347.037 149.047 354.848 156.858C362.658 164.668 362.658 177.332 354.848 185.142L185.142 354.848C177.332 362.658 164.668 362.658 156.858 354.848Z" fill="white"/>
<path d="M156.858 156.858C164.668 149.047 177.332 149.047 185.142 156.858L354.848 326.563C362.658 334.374 362.658 347.037 354.848 354.848C347.037 362.658 334.374 362.658 326.563 354.848L156.858 185.142C149.047 177.332 149.047 164.668 156.858 156.858Z" fill="white"/>
</svg>
