<svg width="30" height="26" viewBox="0 0 30 26" fill="none" xmlns="http://www.w3.org/2000/svg">
<path d="M0.479514 14.1646L11.3136 25.4118C11.6228 25.7329 12.035 25.9091 12.4745 25.9091C12.9145 25.9091 13.3265 25.7326 13.6357 25.4118L14.6194 24.3904C14.9284 24.0699 15.0987 23.6417 15.0987 23.1852C15.0987 22.7289 14.9284 22.2864 14.6194 21.9658L8.29896 15.39L28.3793 15.39C29.2846 15.39 30 14.6542 30 13.7141V12.2702C30 11.33 29.2846 10.5201 28.3793 10.5201L8.22726 10.5201L14.6192 3.90758C14.9282 3.58653 15.0984 3.17002 15.0984 2.71351C15.0984 2.2575 14.9282 1.83491 14.6192 1.51411L13.6355 0.496012C13.3262 0.174959 12.9143 -3.99318e-08 12.4743 0C12.0348 3.98875e-08 11.6226 0.177236 11.3133 0.498289L0.47927 11.7453C0.169272 12.0673 -0.00121304 12.4973 6.49781e-06 12.9543C-0.000969065 13.4128 0.169272 13.843 0.479514 14.1646Z" fill="#422BD0"/>
</svg>
