<svg width="180" height="177" viewBox="0 0 180 177" fill="none" xmlns="http://www.w3.org/2000/svg">
<path d="M153.162 22.771C136.228 8.08638 113.796 0 90 0C66.2035 0 43.7721 8.08638 26.8375 22.771C9.53173 37.7776 0 57.8403 0 79.2623C0 100.245 9.35416 120.163 25.9117 134.936C18.2364 148.244 5.35962 160.724 5.21124 160.867C2.40714 163.564 1.60735 167.735 3.21276 171.278C4.71065 174.581 7.99589 176.67 11.5745 176.67C11.8367 176.67 12.1014 176.658 12.3665 176.635C13.9082 176.503 49.5511 173.285 80.4799 158.081C83.6509 158.376 86.8427 158.525 90.0005 158.525C113.797 158.525 136.228 150.438 153.163 135.754C170.468 120.746 180 100.684 180 79.2623C180 57.8403 170.468 37.7776 153.162 22.771ZM44.081 88.3348C36.4232 88.3348 30.1914 82.1038 30.1914 74.4451C30.1914 66.7868 36.4232 60.5559 44.081 60.5559C51.7403 60.5559 57.9707 66.7868 57.9707 74.4451C57.9707 82.1038 51.7403 88.3348 44.081 88.3348ZM90 88.3348C82.3417 88.3348 76.1103 82.1038 76.1103 74.4451C76.1103 66.7868 82.3417 60.5559 90 60.5559C97.6583 60.5559 103.89 66.7868 103.89 74.4451C103.89 82.1038 97.6583 88.3348 90 88.3348ZM135.919 88.3348C128.26 88.3348 122.029 82.1038 122.029 74.4451C122.029 66.7868 128.26 60.5559 135.919 60.5559C143.577 60.5559 149.809 66.7868 149.809 74.4451C149.809 82.1038 143.577 88.3348 135.919 88.3348Z" fill="#422BD0"/>
</svg>
