<svg width="16" height="16" viewBox="0 0 18 18" fill="none" xmlns="http://www.w3.org/2000/svg">
<path d="M16.928 7.13943L2.40516 0.155459C1.79334 -0.138796 1.10213 -0.00935134 0.601328 0.493107C0.100527 0.995647 -0.108934 1.76995 0.0547532 2.51382L1.34741 8.38882H7.67646C7.9677 8.38882 8.20384 8.66246 8.20384 9.00002C8.20384 9.33755 7.96773 9.61123 7.67646 9.61123H1.34741L0.0547532 15.4862C-0.108934 16.2301 0.100491 17.0044 0.601328 17.5069C1.10315 18.0104 1.79443 18.1382 2.4052 17.8445L16.9281 10.8606C17.5893 10.5426 18 9.8297 18 9.00002C18 8.17035 17.5893 7.45736 16.928 7.13943Z" fill="white"/>
</svg>
