<svg width="512" height="512" viewBox="0 0 512 512" fill="none" xmlns="http://www.w3.org/2000/svg">
<path d="M256 492.17C386.433 492.17 492.17 386.433 492.17 256C492.17 125.567 386.433 19.83 256 19.83C125.567 19.83 19.8301 125.567 19.8301 256C19.8301 386.433 125.567 492.17 256 492.17Z" fill="#5FDFA3"/>
<path d="M256 512C114.853 512 0 397.167 0 256C0 114.853 114.853 0 256 0C397.167 0 512 114.853 512 256C512 397.167 397.167 512 256 512ZM256 39.659C136.705 39.659 39.659 136.705 39.659 256C39.659 375.295 136.705 472.341 256 472.341C375.295 472.341 472.341 375.275 472.341 256C472.341 136.705 375.295 39.659 256 39.659Z" fill="#5FDFA3"/>
<path d="M225.066 350.191C219.752 350.191 214.675 348.069 210.927 344.262L137.756 269.901C130.082 262.088 130.181 249.556 137.994 241.862C145.807 234.208 158.359 234.287 166.033 242.1L224.491 301.509L345.432 168.314C352.828 160.204 365.361 159.629 373.431 166.966C381.541 174.323 382.136 186.855 374.779 194.985L239.74 343.706C236.072 347.751 230.916 350.091 225.463 350.21C225.324 350.191 225.205 350.191 225.066 350.191Z" fill="white"/>
</svg>
